name C:/MyDriveSym/Projects/mobilecap/Data\Session20210816_0002\mocap\ForceDataProcessed\walking1_forces.mot
datacolumns 19
datarows 12
range 0.65950000 0.66500000
endheader 
time	R_ground_force_vx	R_ground_force_vy	R_ground_force_vz	R_ground_force_px	R_ground_force_py	R_ground_force_pz	R_ground_torque_x	R_ground_torque_y	R_ground_torque_z	L_ground_force_vx	L_ground_force_vy	L_ground_force_vz	L_ground_force_px	L_ground_force_py	L_ground_force_pz	L_ground_torque_x	L_ground_torque_y	L_ground_torque_z	
          0.65950000	         84.58067600	        266.62030300	          8.71216800	          0.33230100	          0.00600000	         -0.21862200	          0.00000000	         -0.00131800	          0.00000000	        -98.22551400	        509.47651800	          8.74515200	          0.87828600	          0.00600000	         -0.29012000	          0.00000000	          0.22867300	          0.00000000	
          0.66000000	         84.03627200	        264.34536500	          8.72058600	          0.33245700	          0.00600000	         -0.21860800	          0.00000000	         -0.00022300	          0.00000000	        -98.40891000	        510.72091100	          8.96907000	          0.87844900	          0.00600000	         -0.29012000	          0.00000000	          0.22156900	          0.00000000	
          0.66050000	         83.49043700	        262.07489000	          8.72803400	          0.33261500	          0.00600000	         -0.21859300	          0.00000000	          0.00084700	          0.00000000	        -98.58846200	        511.95697900	          9.19253400	          0.87861200	          0.00600000	         -0.29011900	          0.00000000	          0.21439400	          0.00000000	
          0.66100000	         82.94322900	        259.80901300	          8.73451900	          0.33277300	          0.00600000	         -0.21857900	          0.00000000	          0.00189400	          0.00000000	        -98.76417500	        513.18477400	          9.41551400	          0.87877500	          0.00600000	         -0.29011900	          0.00000000	          0.20715100	          0.00000000	
          0.66150000	         82.39470700	        257.54786400	          8.74004700	          0.33293200	          0.00600000	         -0.21856400	          0.00000000	          0.00291800	          0.00000000	        -98.93605500	        514.40435200	          9.63797800	          0.87893800	          0.00600000	         -0.29011800	          0.00000000	          0.19983900	          0.00000000	
          0.66200000	         81.84493000	        255.29157400	          8.74462400	          0.33309100	          0.00600000	         -0.21854900	          0.00000000	          0.00391900	          0.00000000	        -99.10410800	        515.61576700	          9.85989600	          0.87910000	          0.00600000	         -0.29011600	          0.00000000	          0.19246100	          0.00000000	
          0.66250000	         81.29395700	        253.04027500	          8.74825600	          0.33325200	          0.00600000	         -0.21853400	          0.00000000	          0.00489700	          0.00000000	        -99.26833900	        516.81907200	         10.08124000	          0.87926300	          0.00600000	         -0.29011500	          0.00000000	          0.18501700	          0.00000000	
          0.66300000	         80.74184500	        250.79409600	          8.75094900	          0.33341300	          0.00600000	         -0.21851800	          0.00000000	          0.00585300	          0.00000000	        -99.42875400	        518.01432100	         10.30197900	          0.87942400	          0.00600000	         -0.29011300	          0.00000000	          0.17750800	          0.00000000	
          0.66350000	         80.18865400	        248.55316500	          8.75271000	          0.33357500	          0.00600000	         -0.21850300	          0.00000000	          0.00678600	          0.00000000	        -99.58536000	        519.20156800	         10.52208500	          0.87958600	          0.00600000	         -0.29011100	          0.00000000	          0.16993700	          0.00000000	
          0.66400000	         79.63444300	        246.31761100	          8.75354600	          0.33373700	          0.00600000	         -0.21848800	          0.00000000	          0.00769900	          0.00000000	        -99.73816400	        520.38086700	         10.74152900	          0.87974800	          0.00600000	         -0.29010900	          0.00000000	          0.16230300	          0.00000000	
          0.66450000	         79.07926800	        244.08756100	          8.75346200	          0.33390000	          0.00600000	         -0.21847200	          0.00000000	          0.00859000	          0.00000000	        -99.88717300	        521.55227100	         10.96028300	          0.87990900	          0.00600000	         -0.29010700	          0.00000000	          0.15460800	          0.00000000	
          0.66500000	         78.52319000	        241.86314200	          8.75246600	          0.33406500	          0.00600000	         -0.21845600	          0.00000000	          0.00946000	          0.00000000	       -100.03239400	        522.71583300	         11.17831900	          0.88007000	          0.00600000	         -0.29010400	          0.00000000	          0.14685400	          0.00000000	
